<svg width="129" height="127" viewBox="0 0 129 127" fill="none" xmlns="http://www.w3.org/2000/svg">
<g id="Subtract" filter="url(#filter0_d_442_188)">
<path fill-rule="evenodd" clip-rule="evenodd" d="M84.6298 15.958L28.414 26.7461C19.891 28.3817 14.3224 36.5951 15.958 45.1181L26.3285 99.1578C27.9641 107.681 36.1774 113.249 44.7005 111.614L100.916 100.826C109.439 99.1902 115.008 90.9768 113.372 82.4538L103.002 28.414C101.366 19.891 93.1529 14.3224 84.6298 15.958ZM51.3241 74.995L64.8159 72.4059L69.4464 80.467C69.5676 80.707 69.8563 80.8396 70.1032 80.7546L77.6833 79.3C78.046 79.2304 78.12 79.0281 77.9346 78.6501L57.5279 43.8342C57.4568 43.6598 57.2908 43.5788 57.0007 43.6345L47.6072 45.4371C47.4328 45.5082 47.3225 45.7174 47.3936 45.8918C47.5467 46.6897 47.6273 47.5015 47.6284 48.291C47.5848 48.6191 47.5559 48.9254 47.5288 49.2126C47.5177 49.3307 47.5068 49.4456 47.4954 49.5574L42.269 85.4192C42.2437 85.8753 42.3942 86.0721 42.7932 85.9955L49.6116 84.687C49.945 84.6607 50.1934 84.3874 50.2033 84.047L51.3241 74.995ZM61.2269 65.461L52.0147 67.2289C52.2664 65.6012 52.4834 63.7922 52.6361 61.8451C52.78 60.6534 52.9099 59.4645 53.0378 58.2937C53.1165 57.5734 53.1944 56.8601 53.2744 56.1572C53.4829 54.5002 53.5825 52.8641 53.6097 51.242L53.6822 51.2281C53.9168 51.6861 54.1558 52.1667 54.4053 52.6686C54.6035 53.0671 54.8083 53.479 55.023 53.9039C55.515 54.9 56.0432 55.8891 56.6217 56.9438C56.9109 57.4712 57.1893 57.9912 57.4677 58.5112C57.7462 59.0313 58.0246 59.5513 58.3138 60.0787C58.849 61.1041 59.3773 62.0932 59.8916 63.0098C60.399 63.8901 60.8631 64.7412 61.2269 65.461ZM76.5444 45.1485C77.575 45.8157 78.826 46.0644 80.0159 45.7985C81.263 45.6344 82.4056 44.9262 83.0727 43.8957C83.7692 42.822 83.9747 41.5416 83.7018 40.3154C83.5084 39.1116 82.8504 38.0346 81.8855 37.3172C80.9275 36.6362 79.7559 36.4098 78.3415 36.6812C77.1446 36.9109 76.0676 37.5688 75.3572 38.57C74.6469 39.5713 74.3981 40.8223 74.671 42.0485C74.8714 43.2886 75.5363 44.4019 76.5444 45.1485ZM76.636 50.1323L81.9952 78.0589C82.0648 78.4215 82.2879 78.6043 82.6506 78.5347L89.7591 77.1706C90.0856 77.1079 90.1958 76.8988 90.1193 76.4998L84.76 48.5732C84.6974 48.2468 84.5175 48.0933 84.1911 48.156L77.01 49.534C76.6836 49.5967 76.5664 49.7696 76.636 50.1323Z" fill="white"/>
</g>
<defs>
<filter id="filter0_d_442_188" x="0.673828" y="0.673096" width="127.984" height="126.226" filterUnits="userSpaceOnUse" color-interpolation-filters="sRGB">
<feFlood flood-opacity="0" result="BackgroundImageFix"/>
<feColorMatrix in="SourceAlpha" type="matrix" values="0 0 0 0 0 0 0 0 0 0 0 0 0 0 0 0 0 0 127 0" result="hardAlpha"/>
<feOffset/>
<feGaussianBlur stdDeviation="7.5"/>
<feComposite in2="hardAlpha" operator="out"/>
<feColorMatrix type="matrix" values="0 0 0 0 1 0 0 0 0 1 0 0 0 0 1 0 0 0 0.35 0"/>
<feBlend mode="normal" in2="BackgroundImageFix" result="effect1_dropShadow_442_188"/>
<feBlend mode="normal" in="SourceGraphic" in2="effect1_dropShadow_442_188" result="shape"/>
</filter>
</defs>
</svg>
